<mxfile host="app.diagrams.net" modified="2022-08-31T04:17:45.150Z" agent="5.0 (Macintosh; Intel Mac OS X 10_15_6) AppleWebKit/605.1.15 (KHTML, like Gecko) Version/15.6.1 Safari/605.1.15" etag="QMFricM5p476k_ymhN4i" version="20.2.7" type="github">
  <diagram id="UoKTxc8oA2FwgjU0hqRY" name="Page-1">
    <mxGraphModel dx="1458" dy="1269" grid="1" gridSize="10" guides="1" tooltips="1" connect="1" arrows="1" fold="1" page="1" pageScale="1" pageWidth="827" pageHeight="1169" background="none" math="0" shadow="0">
      <root>
        <mxCell id="0" />
        <mxCell id="1" parent="0" />
        <mxCell id="ldqbTf9PwN0JuAA-Lice-23" style="edgeStyle=orthogonalEdgeStyle;rounded=0;orthogonalLoop=1;jettySize=auto;html=1;fontSize=18;" edge="1" parent="1" source="ldqbTf9PwN0JuAA-Lice-8" target="ldqbTf9PwN0JuAA-Lice-24">
          <mxGeometry relative="1" as="geometry">
            <mxPoint x="260" y="250" as="targetPoint" />
          </mxGeometry>
        </mxCell>
        <mxCell id="ldqbTf9PwN0JuAA-Lice-8" value="Start" style="rounded=1;whiteSpace=wrap;html=1;fontSize=18;arcSize=50;" vertex="1" parent="1">
          <mxGeometry x="170" y="50" width="180" height="90" as="geometry" />
        </mxCell>
        <mxCell id="ldqbTf9PwN0JuAA-Lice-25" style="edgeStyle=orthogonalEdgeStyle;rounded=0;orthogonalLoop=1;jettySize=auto;html=1;fontSize=18;" edge="1" parent="1" source="ldqbTf9PwN0JuAA-Lice-24" target="ldqbTf9PwN0JuAA-Lice-26">
          <mxGeometry relative="1" as="geometry">
            <mxPoint x="500" y="280" as="targetPoint" />
          </mxGeometry>
        </mxCell>
        <mxCell id="ldqbTf9PwN0JuAA-Lice-24" value="Wake Up" style="rounded=1;whiteSpace=wrap;html=1;fontSize=18;" vertex="1" parent="1">
          <mxGeometry x="160" y="230" width="200" height="100" as="geometry" />
        </mxCell>
        <mxCell id="ldqbTf9PwN0JuAA-Lice-27" style="edgeStyle=orthogonalEdgeStyle;rounded=0;orthogonalLoop=1;jettySize=auto;html=1;fontSize=18;" edge="1" parent="1" source="ldqbTf9PwN0JuAA-Lice-26" target="ldqbTf9PwN0JuAA-Lice-28">
          <mxGeometry relative="1" as="geometry">
            <mxPoint x="600.0000000000002" y="420" as="targetPoint" />
          </mxGeometry>
        </mxCell>
        <mxCell id="ldqbTf9PwN0JuAA-Lice-26" value="Brush Teeth" style="rounded=1;whiteSpace=wrap;html=1;fontSize=18;" vertex="1" parent="1">
          <mxGeometry x="500" y="230" width="200" height="100" as="geometry" />
        </mxCell>
        <mxCell id="ldqbTf9PwN0JuAA-Lice-29" style="edgeStyle=orthogonalEdgeStyle;rounded=0;orthogonalLoop=1;jettySize=auto;html=1;fontSize=18;" edge="1" parent="1" source="ldqbTf9PwN0JuAA-Lice-28" target="ldqbTf9PwN0JuAA-Lice-30">
          <mxGeometry relative="1" as="geometry">
            <mxPoint x="370" y="450" as="targetPoint" />
          </mxGeometry>
        </mxCell>
        <mxCell id="ldqbTf9PwN0JuAA-Lice-28" value="Take A Bath" style="rounded=1;whiteSpace=wrap;html=1;fontSize=18;" vertex="1" parent="1">
          <mxGeometry x="500" y="400" width="200" height="100" as="geometry" />
        </mxCell>
        <mxCell id="ldqbTf9PwN0JuAA-Lice-31" style="edgeStyle=orthogonalEdgeStyle;rounded=0;orthogonalLoop=1;jettySize=auto;html=1;fontSize=18;" edge="1" parent="1" source="ldqbTf9PwN0JuAA-Lice-30" target="ldqbTf9PwN0JuAA-Lice-32">
          <mxGeometry relative="1" as="geometry">
            <mxPoint x="260" y="600" as="targetPoint" />
          </mxGeometry>
        </mxCell>
        <mxCell id="ldqbTf9PwN0JuAA-Lice-30" value="Eat Breakfast" style="rounded=1;whiteSpace=wrap;html=1;fontSize=18;" vertex="1" parent="1">
          <mxGeometry x="160" y="400" width="200" height="100" as="geometry" />
        </mxCell>
        <mxCell id="ldqbTf9PwN0JuAA-Lice-33" style="edgeStyle=orthogonalEdgeStyle;rounded=0;orthogonalLoop=1;jettySize=auto;html=1;fontSize=18;" edge="1" parent="1" source="ldqbTf9PwN0JuAA-Lice-32" target="ldqbTf9PwN0JuAA-Lice-34">
          <mxGeometry relative="1" as="geometry">
            <mxPoint x="510" y="620" as="targetPoint" />
          </mxGeometry>
        </mxCell>
        <mxCell id="ldqbTf9PwN0JuAA-Lice-32" value="Prepare to go to Bts" style="rounded=1;whiteSpace=wrap;html=1;fontSize=18;" vertex="1" parent="1">
          <mxGeometry x="160" y="570" width="200" height="100" as="geometry" />
        </mxCell>
        <mxCell id="ldqbTf9PwN0JuAA-Lice-35" style="edgeStyle=orthogonalEdgeStyle;rounded=0;orthogonalLoop=1;jettySize=auto;html=1;fontSize=18;" edge="1" parent="1" source="ldqbTf9PwN0JuAA-Lice-34" target="ldqbTf9PwN0JuAA-Lice-36">
          <mxGeometry relative="1" as="geometry">
            <mxPoint x="600.0000000000002" y="779.9999999999998" as="targetPoint" />
          </mxGeometry>
        </mxCell>
        <mxCell id="ldqbTf9PwN0JuAA-Lice-34" value="Get in BTS" style="rounded=1;whiteSpace=wrap;html=1;fontSize=18;" vertex="1" parent="1">
          <mxGeometry x="500" y="570" width="200" height="100" as="geometry" />
        </mxCell>
        <mxCell id="ldqbTf9PwN0JuAA-Lice-37" style="edgeStyle=orthogonalEdgeStyle;rounded=0;orthogonalLoop=1;jettySize=auto;html=1;fontSize=18;" edge="1" parent="1" source="ldqbTf9PwN0JuAA-Lice-36" target="ldqbTf9PwN0JuAA-Lice-38">
          <mxGeometry relative="1" as="geometry">
            <mxPoint x="320" y="800" as="targetPoint" />
          </mxGeometry>
        </mxCell>
        <mxCell id="ldqbTf9PwN0JuAA-Lice-36" value="Arrive at Siam" style="rounded=1;whiteSpace=wrap;html=1;fontSize=18;" vertex="1" parent="1">
          <mxGeometry x="500" y="750" width="200" height="100" as="geometry" />
        </mxCell>
        <mxCell id="ldqbTf9PwN0JuAA-Lice-39" style="edgeStyle=orthogonalEdgeStyle;rounded=0;orthogonalLoop=1;jettySize=auto;html=1;fontSize=18;" edge="1" parent="1" source="ldqbTf9PwN0JuAA-Lice-38" target="ldqbTf9PwN0JuAA-Lice-40">
          <mxGeometry relative="1" as="geometry">
            <mxPoint x="260" y="980.0000000000002" as="targetPoint" />
          </mxGeometry>
        </mxCell>
        <mxCell id="ldqbTf9PwN0JuAA-Lice-38" value="Walk to Shool" style="rounded=1;whiteSpace=wrap;html=1;fontSize=18;" vertex="1" parent="1">
          <mxGeometry x="160" y="750" width="200" height="100" as="geometry" />
        </mxCell>
        <mxCell id="ldqbTf9PwN0JuAA-Lice-40" value="End" style="rounded=1;whiteSpace=wrap;html=1;fontSize=18;" vertex="1" parent="1">
          <mxGeometry x="160" y="930" width="200" height="100" as="geometry" />
        </mxCell>
      </root>
    </mxGraphModel>
  </diagram>
</mxfile>
